<svg xmlns="http://www.w3.org/2000/svg" viewBox="0 0 600 200" font-family="Inter, system-ui, sans-serif">
  <defs>
    <linearGradient id="g1" x1="0" y1="0" x2="1" y2="1"><stop offset="0%" stop-color="#6366f1"/><stop offset="100%" stop-color="#8b5cf6"/></linearGradient>
    <linearGradient id="g2" x1="0" y1="0" x2="1" y2="1"><stop offset="0%" stop-color="#1e293b"/><stop offset="100%" stop-color="#334155"/></linearGradient>
  </defs>
  <rect width="600" height="200" rx="12" fill="#0f172a"/>
  <!-- Title box -->
  <rect x="200" y="15" width="200" height="40" rx="8" fill="url(#g1)"/>
  <text x="300" y="41" text-anchor="middle" fill="#fff" font-size="15" font-weight="700">DEEP AGENT</text>
  <!-- Lines -->
  <line x1="300" y1="55" x2="300" y2="75" stroke="#475569" stroke-width="2"/>
  <line x1="80" y1="75" x2="520" y2="75" stroke="#475569" stroke-width="2"/>
  <line x1="80" y1="75" x2="80" y2="95" stroke="#475569" stroke-width="2"/>
  <line x1="227" y1="75" x2="227" y2="95" stroke="#475569" stroke-width="2"/>
  <line x1="373" y1="75" x2="373" y2="95" stroke="#475569" stroke-width="2"/>
  <line x1="520" y1="75" x2="520" y2="95" stroke="#475569" stroke-width="2"/>
  <!-- Pillar boxes -->
  <rect x="20" y="95" width="120" height="55" rx="8" fill="url(#g2)" stroke="#6366f1" stroke-width="1.5"/>
  <text x="80" y="118" text-anchor="middle" fill="#c7d2fe" font-size="12" font-weight="600">Planning</text>
  <text x="80" y="135" text-anchor="middle" fill="#94a3b8" font-size="10">TODO / Steer</text>

  <rect x="167" y="95" width="120" height="55" rx="8" fill="url(#g2)" stroke="#8b5cf6" stroke-width="1.5"/>
  <text x="227" y="118" text-anchor="middle" fill="#c7d2fe" font-size="12" font-weight="600">Offload Context</text>
  <text x="227" y="135" text-anchor="middle" fill="#94a3b8" font-size="10">Filesystem</text>

  <rect x="313" y="95" width="120" height="55" rx="8" fill="url(#g2)" stroke="#a78bfa" stroke-width="1.5"/>
  <text x="373" y="118" text-anchor="middle" fill="#c7d2fe" font-size="12" font-weight="600">Task Delegation</text>
  <text x="373" y="135" text-anchor="middle" fill="#94a3b8" font-size="10">Sub-agents</text>

  <rect x="460" y="95" width="120" height="55" rx="8" fill="url(#g2)" stroke="#c4b5fd" stroke-width="1.5"/>
  <text x="520" y="118" text-anchor="middle" fill="#c7d2fe" font-size="12" font-weight="600">Prompt Eng.</text>
  <text x="520" y="135" text-anchor="middle" fill="#94a3b8" font-size="10">Careful / Extensive</text>
  <!-- Caption -->
  <text x="300" y="185" text-anchor="middle" fill="#64748b" font-size="11" font-style="italic">4 central principles of deep agents</text>
</svg>
